<svg width="106" height="97" viewBox="0 0 106 97" fill="none" xmlns="http://www.w3.org/2000/svg">
<path d="M35.3636 1.90909V95H24.0909V13.7273H23.5455L0.818182 28.8182V17.3636L24.0909 1.90909H35.3636ZM73.3 96.2727C66.4515 96.2727 60.6182 94.4091 55.8 90.6818C50.9818 86.9242 47.3 81.4848 44.7545 74.3636C42.2091 67.2121 40.9364 58.5758 40.9364 48.4545C40.9364 38.3939 42.2091 29.803 44.7545 22.6818C47.3303 15.5303 51.0273 10.0758 55.8455 6.31818C60.6939 2.5303 66.5121 0.63636 73.3 0.63636C80.0879 0.63636 85.8909 2.5303 90.7091 6.31818C95.5576 10.0758 99.2545 15.5303 101.8 22.6818C104.376 29.803 105.664 38.3939 105.664 48.4545C105.664 58.5758 104.391 67.2121 101.845 74.3636C99.3 81.4848 95.6182 86.9242 90.8 90.6818C85.9818 94.4091 80.1485 96.2727 73.3 96.2727ZM73.3 86.2727C80.0879 86.2727 85.3606 83 89.1182 76.4545C92.8758 69.9091 94.7545 60.5758 94.7545 48.4545C94.7545 40.3939 93.8909 33.5303 92.1636 27.8636C90.4667 22.197 88.0121 17.8788 84.8 14.9091C81.6182 11.9394 77.7848 10.4545 73.3 10.4545C66.5727 10.4545 61.3152 13.7727 57.5273 20.4091C53.7394 27.0151 51.8455 36.3636 51.8455 48.4545C51.8455 56.5151 52.6939 63.3636 54.3909 69C56.0879 74.6364 58.5273 78.9242 61.7091 81.8636C64.9212 84.803 68.7848 86.2727 73.3 86.2727Z" fill="#5F5F5F"/>
</svg>
