<svg width="60" height="95" viewBox="0 0 60 95" fill="none" xmlns="http://www.w3.org/2000/svg">
<path d="M0.636364 95V86.8182L31.3636 53.1818C34.9697 49.2424 37.9394 45.8182 40.2727 42.9091C42.6061 39.9697 44.3333 37.2121 45.4545 34.6364C46.6061 32.0303 47.1818 29.303 47.1818 26.4545C47.1818 23.1818 46.3939 20.3485 44.8182 17.9545C43.2727 15.5606 41.1515 13.7121 38.4545 12.4091C35.7576 11.1061 32.7273 10.4545 29.3636 10.4545C25.7879 10.4545 22.6667 11.197 20 12.6818C17.3636 14.1364 15.3182 16.1818 13.8636 18.8182C12.4394 21.4545 11.7273 24.5455 11.7273 28.0909H1C1 22.6364 2.25758 17.8485 4.77273 13.7273C7.28788 9.60606 10.7121 6.39393 15.0455 4.0909C19.4091 1.78787 24.303 0.63636 29.7273 0.63636C35.1818 0.63636 40.0152 1.78787 44.2273 4.0909C48.4394 6.39393 51.7424 9.49999 54.1364 13.4091C56.5303 17.3182 57.7273 21.6667 57.7273 26.4545C57.7273 29.8788 57.1061 33.2273 55.8636 36.5C54.6515 39.7424 52.5303 43.3636 49.5 47.3636C46.5 51.3333 42.3333 56.1818 37 61.9091L16.0909 84.2727V85H59.3636V95H0.636364Z" fill="#5F5F5F"/>
</svg>
