<svg width="64" height="97" viewBox="0 0 64 97" fill="none" xmlns="http://www.w3.org/2000/svg">
<path d="M32.0909 96.2727C26.0909 96.2727 20.7424 95.2424 16.0455 93.1818C11.3788 91.1212 7.66667 88.2576 4.90909 84.5909C2.18182 80.8939 0.69697 76.6061 0.454546 71.7273H11.9091C12.1515 74.7273 13.1818 77.3182 15 79.5C16.8182 81.6515 19.197 83.3182 22.1364 84.5C25.0758 85.6818 28.3333 86.2727 31.9091 86.2727C35.9091 86.2727 39.4545 85.5758 42.5455 84.1818C45.6364 82.7879 48.0606 80.8485 49.8182 78.3636C51.5758 75.8788 52.4545 73 52.4545 69.7273C52.4545 66.303 51.6061 63.2879 49.9091 60.6818C48.2121 58.0455 45.7273 55.9848 42.4545 54.5C39.1818 53.0151 35.1818 52.2727 30.4545 52.2727H23V42.2727H30.4545C34.1515 42.2727 37.3939 41.6061 40.1818 40.2727C43 38.9394 45.197 37.0606 46.7727 34.6364C48.3788 32.2121 49.1818 29.3636 49.1818 26.0909C49.1818 22.9394 48.4849 20.197 47.0909 17.8636C45.697 15.5303 43.7273 13.7121 41.1818 12.4091C38.6667 11.1061 35.697 10.4545 32.2727 10.4545C29.0606 10.4545 26.0303 11.0455 23.1818 12.2273C20.3636 13.3788 18.0606 15.0606 16.2727 17.2727C14.4848 19.4545 13.5152 22.0909 13.3636 25.1818H2.45455C2.63636 20.303 4.10606 16.0303 6.86364 12.3636C9.62121 8.66666 13.2273 5.78787 17.6818 3.72727C22.1667 1.66666 27.0909 0.63636 32.4545 0.63636C38.2121 0.63636 43.1515 1.80303 47.2727 4.13636C51.3939 6.43939 54.5606 9.48485 56.7727 13.2727C58.9849 17.0606 60.0909 21.1515 60.0909 25.5455C60.0909 30.7879 58.7121 35.2576 55.9545 38.9545C53.2273 42.6515 49.5152 45.2121 44.8182 46.6364V47.3636C50.697 48.3333 55.2879 50.8333 58.5909 54.8636C61.8939 58.8636 63.5455 63.8182 63.5455 69.7273C63.5455 74.7879 62.1667 79.3333 59.4091 83.3636C56.6818 87.3636 52.9545 90.5152 48.2273 92.8182C43.5 95.1212 38.1212 96.2727 32.0909 96.2727Z" fill="#5F5F5F"/>
</svg>
