<svg width="61" height="96" viewBox="0 0 61 96" fill="none" xmlns="http://www.w3.org/2000/svg">
<path d="M29.7273 95.2727C24.3939 95.2727 19.5909 94.2121 15.3182 92.0909C11.0455 89.9697 7.62121 87.0606 5.04545 83.3636C2.4697 79.6667 1.06061 75.4545 0.818182 70.7273H11.7273C12.1515 74.9394 14.0606 78.4242 17.4545 81.1818C20.8788 83.9091 24.9697 85.2727 29.7273 85.2727C33.5455 85.2727 36.9394 84.3788 39.9091 82.5909C42.9091 80.803 45.2576 78.3485 46.9545 75.2273C48.6818 72.0758 49.5455 68.5152 49.5455 64.5455C49.5455 60.4848 48.6515 56.8636 46.8636 53.6818C45.1061 50.4697 42.6818 47.9394 39.5909 46.0909C36.5 44.2424 32.9697 43.303 29 43.2727C26.1515 43.2424 23.2273 43.6818 20.2273 44.5909C17.2273 45.4697 14.7576 46.6061 12.8182 48L2.27273 46.7273L7.90909 0.909088H56.2727V10.9091H17.3636L14.0909 38.3636H14.6364C16.5455 36.8485 18.9394 35.5909 21.8182 34.5909C24.697 33.5909 27.697 33.0909 30.8182 33.0909C36.5152 33.0909 41.5909 34.4545 46.0455 37.1818C50.5303 39.8788 54.0455 43.5758 56.5909 48.2727C59.1667 52.9697 60.4545 58.3333 60.4545 64.3636C60.4545 70.303 59.1212 75.6061 56.4545 80.2727C53.8182 84.9091 50.1818 88.5758 45.5455 91.2727C40.9091 93.9394 35.6364 95.2727 29.7273 95.2727Z" fill="#5F5F5F"/>
</svg>
