<svg width="64" height="97" viewBox="0 0 64 97" fill="none" xmlns="http://www.w3.org/2000/svg">
<path d="M32.5455 96.2727C28.7273 96.2121 24.9091 95.4848 21.0909 94.0909C17.2727 92.697 13.7879 90.3485 10.6364 87.0455C7.48485 83.7121 4.95455 79.2121 3.04545 73.5455C1.13636 67.8485 0.181818 60.697 0.181818 52.0909C0.181818 43.8485 0.954545 36.5455 2.5 30.1818C4.04545 23.7879 6.28788 18.4091 9.22727 14.0455C12.1667 9.65151 15.7121 6.31818 19.8636 4.04545C24.0455 1.77272 28.7576 0.63636 34 0.63636C39.2121 0.63636 43.8485 1.68182 47.9091 3.77273C52 5.83333 55.3333 8.71212 57.9091 12.4091C60.4849 16.1061 62.1515 20.3636 62.9091 25.1818H51.8182C50.7879 21 48.7879 17.5303 45.8182 14.7727C42.8485 12.0151 38.9091 10.6364 34 10.6364C26.7879 10.6364 21.1061 13.7727 16.9545 20.0455C12.8333 26.3182 10.7576 35.1212 10.7273 46.4545H11.4545C13.1515 43.8788 15.1667 41.6818 17.5 39.8636C19.8636 38.0152 22.4697 36.5909 25.3182 35.5909C28.1667 34.5909 31.1818 34.0909 34.3636 34.0909C39.697 34.0909 44.5758 35.4242 49 38.0909C53.4242 40.7273 56.9697 44.3788 59.6364 49.0455C62.303 53.6818 63.6364 59 63.6364 65C63.6364 70.7576 62.3485 76.0303 59.7727 80.8182C57.197 85.5758 53.5758 89.3636 48.9091 92.1818C44.2727 94.9697 38.8182 96.3333 32.5455 96.2727ZM32.5455 86.2727C36.3636 86.2727 39.7879 85.3182 42.8182 83.4091C45.8788 81.5 48.2879 78.9394 50.0455 75.7273C51.8333 72.5152 52.7273 68.9394 52.7273 65C52.7273 61.1515 51.8636 57.6515 50.1364 54.5C48.4394 51.3182 46.0909 48.7879 43.0909 46.9091C40.1212 45.0303 36.7273 44.0909 32.9091 44.0909C30.0303 44.0909 27.3485 44.6667 24.8636 45.8182C22.3788 46.9394 20.197 48.4848 18.3182 50.4545C16.4697 52.4242 15.0152 54.6818 13.9545 57.2273C12.8939 59.7424 12.3636 62.3939 12.3636 65.1818C12.3636 68.8788 13.2273 72.3333 14.9545 75.5455C16.7121 78.7576 19.1061 81.3485 22.1364 83.3182C25.197 85.2879 28.6667 86.2727 32.5455 86.2727Z" fill="#5F5F5F"/>
</svg>
