<svg width="65" height="97" viewBox="0 0 65 97" fill="none" xmlns="http://www.w3.org/2000/svg">
<path d="M32.4545 96.2727C26.2121 96.2727 20.697 95.1667 15.9091 92.9545C11.1515 90.7121 7.43939 87.6364 4.77273 83.7273C2.10606 79.7879 0.787879 75.303 0.818182 70.2727C0.787879 66.3333 1.56061 62.697 3.13636 59.3636C4.71212 56 6.86364 53.197 9.59091 50.9545C12.3485 48.6818 15.4242 47.2424 18.8182 46.6364V46.0909C14.3636 44.9394 10.8182 42.4394 8.18182 38.5909C5.54545 34.7121 4.24242 30.303 4.27273 25.3636C4.24242 20.6364 5.43939 16.4091 7.86364 12.6818C10.2879 8.95454 13.6212 6.01515 17.8636 3.86363C22.1364 1.71212 27 0.63636 32.4545 0.63636C37.8485 0.63636 42.6667 1.71212 46.9091 3.86363C51.1515 6.01515 54.4848 8.95454 56.9091 12.6818C59.3636 16.4091 60.6061 20.6364 60.6364 25.3636C60.6061 30.303 59.2576 34.7121 56.5909 38.5909C53.9545 42.4394 50.4545 44.9394 46.0909 46.0909V46.6364C49.4545 47.2424 52.4848 48.6818 55.1818 50.9545C57.8788 53.197 60.0303 56 61.6364 59.3636C63.2424 62.697 64.0606 66.3333 64.0909 70.2727C64.0606 75.303 62.697 79.7879 60 83.7273C57.3333 87.6364 53.6212 90.7121 48.8636 92.9545C44.1364 95.1667 38.6667 96.2727 32.4545 96.2727ZM32.4545 86.2727C36.6667 86.2727 40.303 85.5909 43.3636 84.2273C46.4242 82.8636 48.7879 80.9394 50.4545 78.4545C52.1212 75.9697 52.9697 73.0606 53 69.7273C52.9697 66.2121 52.0606 63.1061 50.2727 60.4091C48.4849 57.7121 46.0455 55.5909 42.9545 54.0455C39.8939 52.5 36.3939 51.7273 32.4545 51.7273C28.4848 51.7273 24.9394 52.5 21.8182 54.0455C18.7273 55.5909 16.2879 57.7121 14.5 60.4091C12.7424 63.1061 11.8788 66.2121 11.9091 69.7273C11.8788 73.0606 12.6818 75.9697 14.3182 78.4545C15.9848 80.9394 18.3636 82.8636 21.4545 84.2273C24.5455 85.5909 28.2121 86.2727 32.4545 86.2727ZM32.4545 42.0909C35.7879 42.0909 38.7424 41.4242 41.3182 40.0909C43.9242 38.7576 45.9697 36.8939 47.4545 34.5C48.9394 32.1061 49.697 29.303 49.7273 26.0909C49.697 22.9394 48.9545 20.197 47.5 17.8636C46.0455 15.5 44.0303 13.6818 41.4545 12.4091C38.8788 11.1061 35.8788 10.4545 32.4545 10.4545C28.9697 10.4545 25.9242 11.1061 23.3182 12.4091C20.7121 13.6818 18.697 15.5 17.2727 17.8636C15.8485 20.197 15.1515 22.9394 15.1818 26.0909C15.1515 29.303 15.8636 32.1061 17.3182 34.5C18.803 36.8939 20.8485 38.7576 23.4545 40.0909C26.0606 41.4242 29.0606 42.0909 32.4545 42.0909Z" fill="#5F5F5F"/>
</svg>
