<svg width="64" height="97" viewBox="0 0 64 97" fill="none" xmlns="http://www.w3.org/2000/svg">
<path d="M31.2727 0.63636C35.0909 0.666664 38.9091 1.39394 42.7273 2.81818C46.5455 4.24242 50.0303 6.60606 53.1818 9.90909C56.3333 13.1818 58.8636 17.6515 60.7727 23.3182C62.6818 28.9848 63.6364 36.0909 63.6364 44.6364C63.6364 52.9091 62.8485 60.2576 61.2727 66.6818C59.7273 73.0758 57.4848 78.4697 54.5455 82.8636C51.6364 87.2576 48.0909 90.5909 43.9091 92.8636C39.7576 95.1364 35.0606 96.2727 29.8182 96.2727C24.6061 96.2727 19.9545 95.2424 15.8636 93.1818C11.803 91.0909 8.4697 88.197 5.86364 84.5C3.28788 80.7727 1.63636 76.4545 0.909091 71.5455H12C13 75.8182 14.9848 79.3485 17.9545 82.1364C20.9545 84.8939 24.9091 86.2727 29.8182 86.2727C37 86.2727 42.6667 83.1364 46.8182 76.8636C51 70.5909 53.0909 61.7273 53.0909 50.2727H52.3636C50.6667 52.8182 48.6515 55.0152 46.3182 56.8636C43.9849 58.7121 41.3939 60.1364 38.5455 61.1364C35.697 62.1364 32.6667 62.6364 29.4545 62.6364C24.1212 62.6364 19.2273 61.3182 14.7727 58.6818C10.3485 56.0151 6.80303 52.3636 4.13636 47.7273C1.5 43.0606 0.181818 37.7273 0.181818 31.7273C0.181818 26.0303 1.45455 20.8182 4 16.0909C6.57576 11.3333 10.1818 7.54545 14.8182 4.72727C19.4848 1.90909 24.9697 0.545453 31.2727 0.63636ZM31.2727 10.6364C27.4545 10.6364 24.0152 11.5909 20.9545 13.5C17.9242 15.3788 15.5152 17.9242 13.7273 21.1364C11.9697 24.3182 11.0909 27.8485 11.0909 31.7273C11.0909 35.6061 11.9394 39.1364 13.6364 42.3182C15.3636 45.4697 17.7121 47.9848 20.6818 49.8636C23.6818 51.7121 27.0909 52.6364 30.9091 52.6364C33.7879 52.6364 36.4697 52.0758 38.9545 50.9545C41.4394 49.803 43.6061 48.2424 45.4545 46.2727C47.3333 44.2727 48.803 42.0151 49.8636 39.5C50.9242 36.9545 51.4545 34.303 51.4545 31.5455C51.4545 27.9091 50.5758 24.5 48.8182 21.3182C47.0909 18.1364 44.697 15.5606 41.6364 13.5909C38.6061 11.6212 35.1515 10.6364 31.2727 10.6364Z" fill="#5F5F5F"/>
</svg>
